<mxfile host="app.diagrams.net" agent="Mozilla/5.0 (Windows NT 10.0; Win64; x64) AppleWebKit/537.36 (KHTML, like Gecko) Chrome/137.0.0.0 Safari/537.36 Edg/137.0.0.0" version="27.1.5">
  <diagram name="Page-1" id="sX5UAU_ZHsNCuBW0D5zK">
    <mxGraphModel dx="789" dy="455" grid="1" gridSize="10" guides="1" tooltips="1" connect="1" arrows="1" fold="1" page="1" pageScale="1" pageWidth="850" pageHeight="1100" math="0" shadow="0">
      <root>
        <mxCell id="0" />
        <mxCell id="1" parent="0" />
        <mxCell id="_Cbe9iGmhXCVgnXI-_JG-1" value="entrada 1" style="rounded=1;whiteSpace=wrap;arcSize=50;strokeWidth=2;" vertex="1" parent="1">
          <mxGeometry x="20" y="206" width="94" height="39" as="geometry" />
        </mxCell>
        <mxCell id="_Cbe9iGmhXCVgnXI-_JG-27" style="edgeStyle=orthogonalEdgeStyle;rounded=0;orthogonalLoop=1;jettySize=auto;html=1;exitX=1;exitY=0.5;exitDx=0;exitDy=0;entryX=0;entryY=0.75;entryDx=0;entryDy=0;" edge="1" parent="1" source="_Cbe9iGmhXCVgnXI-_JG-2" target="_Cbe9iGmhXCVgnXI-_JG-7">
          <mxGeometry relative="1" as="geometry">
            <Array as="points">
              <mxPoint x="320" y="226" />
              <mxPoint x="320" y="680" />
            </Array>
          </mxGeometry>
        </mxCell>
        <mxCell id="_Cbe9iGmhXCVgnXI-_JG-2" value="A1 Proceso" style="whiteSpace=wrap;strokeWidth=2;" vertex="1" parent="1">
          <mxGeometry x="164" y="199" width="137" height="54" as="geometry" />
        </mxCell>
        <mxCell id="_Cbe9iGmhXCVgnXI-_JG-3" value="A2 Proceso" style="whiteSpace=wrap;strokeWidth=2;" vertex="1" parent="1">
          <mxGeometry x="410" y="199" width="137" height="54" as="geometry" />
        </mxCell>
        <mxCell id="_Cbe9iGmhXCVgnXI-_JG-4" value="A3 Proceso" style="whiteSpace=wrap;strokeWidth=2;" vertex="1" parent="1">
          <mxGeometry x="720" y="400" width="137" height="54" as="geometry" />
        </mxCell>
        <mxCell id="_Cbe9iGmhXCVgnXI-_JG-5" value="entrada 2" style="rounded=1;whiteSpace=wrap;arcSize=50;strokeWidth=2;" vertex="1" parent="1">
          <mxGeometry x="425" y="430" width="94" height="39" as="geometry" />
        </mxCell>
        <mxCell id="_Cbe9iGmhXCVgnXI-_JG-23" style="edgeStyle=orthogonalEdgeStyle;rounded=0;orthogonalLoop=1;jettySize=auto;html=1;exitX=1;exitY=0.5;exitDx=0;exitDy=0;entryX=0;entryY=1;entryDx=0;entryDy=0;" edge="1" parent="1" source="_Cbe9iGmhXCVgnXI-_JG-6" target="_Cbe9iGmhXCVgnXI-_JG-4">
          <mxGeometry relative="1" as="geometry">
            <Array as="points">
              <mxPoint x="650" y="509" />
              <mxPoint x="650" y="454" />
            </Array>
          </mxGeometry>
        </mxCell>
        <mxCell id="_Cbe9iGmhXCVgnXI-_JG-6" value="entrada 3" style="rounded=1;whiteSpace=wrap;arcSize=50;strokeWidth=2;" vertex="1" parent="1">
          <mxGeometry x="431.5" y="490" width="94" height="39" as="geometry" />
        </mxCell>
        <mxCell id="_Cbe9iGmhXCVgnXI-_JG-7" value="A4 Proceso" style="whiteSpace=wrap;strokeWidth=2;" vertex="1" parent="1">
          <mxGeometry x="966" y="640" width="137" height="54" as="geometry" />
        </mxCell>
        <mxCell id="_Cbe9iGmhXCVgnXI-_JG-8" value="1 Almacén de datos" style="shape=cylinder3;boundedLbl=1;backgroundOutline=1;size=10;strokeWidth=2;whiteSpace=wrap;" vertex="1" parent="1">
          <mxGeometry x="695" y="529" width="155" height="80" as="geometry" />
        </mxCell>
        <mxCell id="_Cbe9iGmhXCVgnXI-_JG-9" value="2 Almacén de datos" style="shape=cylinder3;boundedLbl=1;backgroundOutline=1;size=10;strokeWidth=2;whiteSpace=wrap;" vertex="1" parent="1">
          <mxGeometry x="966" y="800" width="155" height="80" as="geometry" />
        </mxCell>
        <mxCell id="_Cbe9iGmhXCVgnXI-_JG-10" value="salida 1" style="rounded=1;whiteSpace=wrap;arcSize=50;strokeWidth=2;" vertex="1" parent="1">
          <mxGeometry x="1196" y="647.5" width="79" height="39" as="geometry" />
        </mxCell>
        <mxCell id="_Cbe9iGmhXCVgnXI-_JG-11" value="" style="curved=1;startArrow=none;endArrow=block;exitX=1;exitY=0.51;entryX=0;entryY=0.5;rounded=0;" edge="1" parent="1" source="_Cbe9iGmhXCVgnXI-_JG-1" target="_Cbe9iGmhXCVgnXI-_JG-2">
          <mxGeometry relative="1" as="geometry">
            <Array as="points" />
          </mxGeometry>
        </mxCell>
        <mxCell id="_Cbe9iGmhXCVgnXI-_JG-12" value="salida 2" style="curved=1;startArrow=none;endArrow=block;exitX=1;exitY=0.5;entryX=0;entryY=0.5;rounded=0;" edge="1" parent="1" source="_Cbe9iGmhXCVgnXI-_JG-2" target="_Cbe9iGmhXCVgnXI-_JG-3">
          <mxGeometry relative="1" as="geometry">
            <Array as="points" />
          </mxGeometry>
        </mxCell>
        <mxCell id="_Cbe9iGmhXCVgnXI-_JG-13" value="salida 3" style="startArrow=none;endArrow=block;exitX=0.74;exitY=1;entryX=0;entryY=0.5;rounded=0;edgeStyle=orthogonalEdgeStyle;entryDx=0;entryDy=0;" edge="1" parent="1" source="_Cbe9iGmhXCVgnXI-_JG-3" target="_Cbe9iGmhXCVgnXI-_JG-4">
          <mxGeometry relative="1" as="geometry">
            <Array as="points">
              <mxPoint x="511" y="340" />
              <mxPoint x="670" y="340" />
              <mxPoint x="670" y="420" />
              <mxPoint x="720" y="420" />
            </Array>
          </mxGeometry>
        </mxCell>
        <mxCell id="_Cbe9iGmhXCVgnXI-_JG-14" value="" style="startArrow=none;endArrow=block;exitX=1;exitY=0.5;entryX=0;entryY=0.75;rounded=0;entryDx=0;entryDy=0;edgeStyle=orthogonalEdgeStyle;" edge="1" parent="1" source="_Cbe9iGmhXCVgnXI-_JG-5" target="_Cbe9iGmhXCVgnXI-_JG-4">
          <mxGeometry relative="1" as="geometry" />
        </mxCell>
        <mxCell id="_Cbe9iGmhXCVgnXI-_JG-16" value="salida 4" style="startArrow=none;endArrow=block;exitX=1.01;exitY=0.25;entryX=0;entryY=0.25;rounded=0;edgeStyle=orthogonalEdgeStyle;entryDx=0;entryDy=0;" edge="1" parent="1" source="_Cbe9iGmhXCVgnXI-_JG-4" target="_Cbe9iGmhXCVgnXI-_JG-7">
          <mxGeometry x="0.1151" relative="1" as="geometry">
            <Array as="points">
              <mxPoint x="920" y="414" />
              <mxPoint x="920" y="654" />
            </Array>
            <mxPoint y="1" as="offset" />
          </mxGeometry>
        </mxCell>
        <mxCell id="_Cbe9iGmhXCVgnXI-_JG-17" value="" style="startArrow=none;endArrow=block;exitX=0.5;exitY=1;entryX=0.5;entryY=0;rounded=0;edgeStyle=orthogonalEdgeStyle;entryDx=0;entryDy=0;entryPerimeter=0;exitDx=0;exitDy=0;" edge="1" parent="1" source="_Cbe9iGmhXCVgnXI-_JG-4" target="_Cbe9iGmhXCVgnXI-_JG-8">
          <mxGeometry relative="1" as="geometry">
            <Array as="points">
              <mxPoint x="773" y="454" />
            </Array>
          </mxGeometry>
        </mxCell>
        <mxCell id="_Cbe9iGmhXCVgnXI-_JG-19" value="" style="curved=1;startArrow=none;endArrow=block;exitX=1;exitY=0.5;entryX=0;entryY=0.51;rounded=0;" edge="1" parent="1" source="_Cbe9iGmhXCVgnXI-_JG-7" target="_Cbe9iGmhXCVgnXI-_JG-10">
          <mxGeometry relative="1" as="geometry">
            <Array as="points" />
          </mxGeometry>
        </mxCell>
        <mxCell id="_Cbe9iGmhXCVgnXI-_JG-29" style="edgeStyle=orthogonalEdgeStyle;rounded=0;orthogonalLoop=1;jettySize=auto;html=1;exitX=0.5;exitY=0;exitDx=0;exitDy=0;exitPerimeter=0;entryX=0.592;entryY=0.994;entryDx=0;entryDy=0;entryPerimeter=0;" edge="1" parent="1" source="_Cbe9iGmhXCVgnXI-_JG-9" target="_Cbe9iGmhXCVgnXI-_JG-7">
          <mxGeometry relative="1" as="geometry">
            <Array as="points">
              <mxPoint x="1047" y="800" />
            </Array>
          </mxGeometry>
        </mxCell>
      </root>
    </mxGraphModel>
  </diagram>
</mxfile>
